<svg width="2680" height="2563" viewBox="0 0 2680 2563" fill="none" xmlns="http://www.w3.org/2000/svg">
<path fill-rule="evenodd" clip-rule="evenodd" d="M1221.11 13.367L17.8117 2368.98C-37.1274 2476.53 70.367 2594.82 182.667 2550.39L2079.57 1799.89C2084.18 1798.06 2089.4 1800.31 2091.24 1804.92L2245.61 2192.61C2256.06 2218.86 2281.46 2236.08 2309.71 2236.08H2671.97C2675.52 2236.08 2677.94 2232.48 2676.59 2229.19L2319.41 1356.6C2315 1345.83 2302.68 1340.7 2291.93 1345.15L676.019 2014.43C603.351 2044.53 529.754 1973.49 557.265 1899.8L1255.85 28.6658C1259.49 18.918 1254.62 8.05548 1244.92 4.29119C1235.83 0.763872 1225.54 4.6842 1221.11 13.367ZM2255.12 1223.15L1040.76 1687.66C909.035 1738.05 779.357 1609.68 828.41 1477.44L1274.82 274.064C1300.12 205.85 1365.2 160.582 1437.96 160.582H1692.8C1712.42 160.582 1729.97 172.761 1736.83 191.135L2059.32 1054.43C2062.38 1062.64 2070.23 1068.08 2078.99 1068.08H2175.36C2200.43 1068.08 2222.95 1083.42 2232.13 1106.76L2267.16 1195.86C2271.43 1206.72 2266.02 1218.98 2255.12 1223.15ZM1671.45 1188.56L1453.56 1254.32C1391.16 1273.15 1334.09 1212.59 1356.59 1151.42L1514.63 721.663C1515.59 719.053 1519.28 719.041 1520.25 721.645L1685.04 1161.08C1689.31 1172.45 1683.07 1185.05 1671.45 1188.56Z" fill="white"/>
<path d="M17.8117 2368.98L20.038 2370.12L20.038 2370.12L17.8117 2368.98ZM1221.11 13.367L1218.88 12.2297L1218.88 12.2297L1221.11 13.367ZM182.667 2550.39L181.747 2548.06L181.747 2548.06L182.667 2550.39ZM2079.57 1799.89L2078.65 1797.56L2078.65 1797.56L2079.57 1799.89ZM2091.24 1804.92L2088.92 1805.85L2088.92 1805.85L2091.24 1804.92ZM2245.61 2192.61L2243.28 2193.53L2243.28 2193.53L2245.61 2192.61ZM2676.59 2229.19L2678.91 2228.24L2678.91 2228.24L2676.59 2229.19ZM2319.41 1356.6L2321.72 1355.65L2321.72 1355.65L2319.41 1356.6ZM2291.93 1345.15L2292.89 1347.46L2292.89 1347.46L2291.93 1345.15ZM676.019 2014.43L675.063 2012.12L675.063 2012.12L676.019 2014.43ZM557.265 1899.8L554.923 1898.93L554.923 1898.93L557.265 1899.8ZM1255.85 28.6658L1253.51 27.7914L1253.51 27.7914L1255.85 28.6658ZM1244.92 4.29119L1245.82 1.96053L1245.82 1.96053L1244.92 4.29119ZM1040.76 1687.66L1039.87 1685.33L1039.87 1685.33L1040.76 1687.66ZM2255.12 1223.15L2256.01 1225.49L2256.01 1225.49L2255.12 1223.15ZM828.41 1477.44L830.754 1478.31L830.754 1478.31L828.41 1477.44ZM1274.82 274.064L1272.48 273.194L1272.48 273.194L1274.82 274.064ZM1736.83 191.135L1739.17 190.26L1739.17 190.26L1736.83 191.135ZM2059.32 1054.43L2056.98 1055.31L2056.98 1055.31L2059.32 1054.43ZM2232.13 1106.76L2234.45 1105.84L2234.45 1105.84L2232.13 1106.76ZM2267.16 1195.86L2264.83 1196.77L2264.83 1196.77L2267.16 1195.86ZM1453.56 1254.32L1454.28 1256.71L1454.28 1256.71L1453.56 1254.32ZM1671.45 1188.56L1670.72 1186.17L1670.72 1186.17L1671.45 1188.56ZM1356.59 1151.42L1354.24 1150.56L1354.24 1150.56L1356.59 1151.42ZM1514.63 721.663L1512.28 720.8L1512.28 720.8L1514.63 721.663ZM1520.25 721.645L1517.91 722.523L1517.91 722.523L1520.25 721.645ZM1685.04 1161.08L1682.7 1161.96L1682.7 1161.96L1685.04 1161.08ZM20.038 2370.12L1223.34 14.5043L1218.88 12.2297L15.5853 2367.84L20.038 2370.12ZM181.747 2548.06C71.5904 2591.65 -33.8526 2475.62 20.038 2370.12L15.5853 2367.84C-40.4022 2477.45 69.1436 2597.99 183.587 2552.71L181.747 2548.06ZM2078.65 1797.56L181.747 2548.06L183.587 2552.71L2080.49 1802.21L2078.65 1797.56ZM2093.56 1804C2091.22 1798.11 2084.54 1795.23 2078.65 1797.56L2080.49 1802.21C2083.82 1800.89 2087.59 1802.52 2088.92 1805.85L2093.56 1804ZM2247.93 2191.68L2093.56 1804L2088.92 1805.85L2243.28 2193.53L2247.93 2191.68ZM2309.71 2233.58C2282.48 2233.58 2258 2216.98 2247.93 2191.68L2243.28 2193.53C2254.11 2220.73 2280.43 2238.58 2309.71 2238.58V2233.58ZM2671.97 2233.58H2309.71V2238.58H2671.97V2233.58ZM2674.28 2230.13C2674.95 2231.78 2673.74 2233.58 2671.97 2233.58V2238.58C2677.3 2238.58 2680.93 2233.17 2678.91 2228.24L2674.28 2230.13ZM2317.09 1357.54L2674.28 2230.13L2678.91 2228.24L2321.72 1355.65L2317.09 1357.54ZM2292.89 1347.46C2302.36 1343.54 2313.21 1348.06 2317.09 1357.54L2321.72 1355.65C2316.79 1343.6 2303 1337.86 2290.98 1342.84L2292.89 1347.46ZM676.976 2016.74L2292.89 1347.46L2290.98 1342.84L675.063 2012.12L676.976 2016.74ZM554.923 1898.93C526.648 1974.66 602.29 2047.67 676.976 2016.74L675.063 2012.12C604.413 2041.38 532.86 1972.32 559.607 1900.68L554.923 1898.93ZM1253.51 27.7914L554.923 1898.93L559.607 1900.68L1258.19 29.5402L1253.51 27.7914ZM1244.01 6.62185C1252.44 9.89117 1256.67 19.3253 1253.51 27.7914L1258.19 29.5402C1262.31 18.5106 1256.8 6.21978 1245.82 1.96053L1244.01 6.62185ZM1223.34 14.5043C1227.19 6.96318 1236.12 3.55835 1244.01 6.62185L1245.82 1.96053C1235.54 -2.03061 1223.9 2.40522 1218.88 12.2297L1223.34 14.5043ZM1041.66 1690L2256.01 1225.49L2254.23 1220.82L1039.87 1685.33L1041.66 1690ZM826.066 1476.57C776.265 1610.82 907.92 1741.15 1041.66 1690L1039.87 1685.33C910.15 1734.94 782.449 1608.53 830.754 1478.31L826.066 1476.57ZM1272.48 273.194L826.066 1476.57L830.754 1478.31L1277.16 274.934L1272.48 273.194ZM1437.96 158.082C1364.15 158.082 1298.14 204 1272.48 273.194L1277.16 274.934C1302.1 207.699 1366.24 163.082 1437.96 163.082V158.082ZM1692.8 158.082H1437.96V163.082H1692.8V158.082ZM1739.17 190.26C1731.94 170.909 1713.46 158.082 1692.8 158.082V163.082C1711.37 163.082 1727.99 174.613 1734.49 192.01L1739.17 190.26ZM2061.66 1053.56L1739.17 190.26L1734.49 192.01L2056.98 1055.31L2061.66 1053.56ZM2078.99 1065.58C2071.27 1065.58 2064.36 1060.79 2061.66 1053.56L2056.98 1055.31C2060.41 1064.49 2069.18 1070.58 2078.99 1070.58V1065.58ZM2175.36 1065.58H2078.99V1070.58H2175.36V1065.58ZM2234.45 1105.84C2224.9 1081.55 2201.46 1065.58 2175.36 1065.58V1070.58C2199.4 1070.58 2221 1085.3 2229.8 1107.67L2234.45 1105.84ZM2269.49 1194.94L2234.45 1105.84L2229.8 1107.67L2264.83 1196.77L2269.49 1194.94ZM2256.01 1225.49C2268.21 1220.82 2274.27 1207.1 2269.49 1194.94L2264.83 1196.77C2268.6 1206.34 2263.83 1217.15 2254.23 1220.82L2256.01 1225.49ZM1454.28 1256.71L1672.17 1190.95L1670.72 1186.17L1452.83 1251.92L1454.28 1256.71ZM1354.24 1150.56C1331.03 1213.66 1389.91 1276.14 1454.28 1256.71L1452.83 1251.92C1392.42 1270.16 1337.15 1211.51 1358.93 1152.28L1354.24 1150.56ZM1512.28 720.8L1354.24 1150.56L1358.93 1152.28L1516.98 722.526L1512.28 720.8ZM1522.59 720.768C1520.8 715.993 1514.04 716.015 1512.28 720.8L1516.98 722.526C1517.03 722.379 1517.1 722.315 1517.15 722.279C1517.22 722.234 1517.32 722.199 1517.44 722.199C1517.56 722.198 1517.66 722.233 1517.73 722.277C1517.79 722.313 1517.86 722.376 1517.91 722.523L1522.59 720.768ZM1687.38 1160.21L1522.59 720.768L1517.91 722.523L1682.7 1161.96L1687.38 1160.21ZM1672.17 1190.95C1685.18 1187.03 1692.15 1172.93 1687.38 1160.21L1682.7 1161.96C1686.46 1171.97 1680.96 1183.08 1670.72 1186.17L1672.17 1190.95Z" fill="black"/>
</svg>
